<svg width="60" height="61" viewBox="0 0 60 61" fill="none" xmlns="http://www.w3.org/2000/svg">
<path d="M52.5 20.9474V30.9474H47.5V23.4474H35V10.9474H12.5V50.9474H27.5V55.9474H9.9825C9.32453 55.9474 8.69348 55.6862 8.22799 55.2212C7.7625 54.7561 7.50066 54.1254 7.5 53.4674V8.42739C7.5 7.08489 8.6225 5.94739 10.005 5.94739H37.4925L52.5 20.9474ZM34.465 39.2649C34.5625 37.4474 35.965 35.9674 37.775 35.7749L39.95 35.5449C40.2091 35.5168 40.453 35.4084 40.6475 35.2349L42.275 33.7724C42.93 33.1822 43.7743 32.8452 44.6557 32.8223C45.5371 32.7994 46.3977 33.092 47.0825 33.6474L48.7875 35.0224C48.9875 35.1849 49.2375 35.2799 49.4975 35.2949L51.6825 35.4124C53.5 35.5099 54.98 36.9124 55.1725 38.7224L55.4025 40.8974C55.4306 41.1565 55.539 41.4004 55.7125 41.5949L57.175 43.2224C58.3925 44.5774 58.445 46.6149 57.3 48.0299L55.925 49.7349C55.7626 49.9375 55.6674 50.1857 55.6525 50.4449L55.535 52.6299C55.4897 53.5106 55.1314 54.3462 54.5245 54.9861C53.9176 55.626 53.1021 56.0281 52.225 56.1199L50.05 56.3499C49.7909 56.378 49.547 56.4864 49.3525 56.6599L47.725 58.1224C47.07 58.7126 46.2257 59.0495 45.3443 59.0725C44.4629 59.0954 43.6023 58.8028 42.9175 58.2474L41.2125 56.8724C41.0099 56.71 40.7617 56.6148 40.5025 56.5999L38.3175 56.4824C37.4368 56.4371 36.6011 56.0788 35.9613 55.4719C35.3214 54.865 34.9193 54.0495 34.8275 53.1724L34.5975 50.9974C34.5694 50.7383 34.461 50.4944 34.2875 50.2999L32.825 48.6724C32.2348 48.0174 31.8978 47.1731 31.8749 46.2917C31.852 45.4103 32.1446 44.5497 32.7 43.8649L34.075 42.1599C34.2374 41.9573 34.3326 41.7091 34.3475 41.4499L34.465 39.2649ZM52.575 43.5224L49.925 40.8724L43.75 47.0474L40.075 43.3724L37.425 46.0224L43.75 52.3474L52.575 43.5224Z" fill="#0ECC8D"/>
</svg>
