<svg width="26" height="26" viewBox="0 0 26 26" fill="none" xmlns="http://www.w3.org/2000/svg">
<path d="M21.2545 2.95206H4.75536C4.07627 2.94627 3.42254 3.20977 2.93728 3.68488C2.45203 4.15999 2.17476 4.808 2.16619 5.48706V7.78373C2.15976 8.33249 2.32859 8.869 2.64813 9.31519C2.96767 9.76137 3.42124 10.094 3.94286 10.2646V18.7796C3.94357 19.3432 4.05704 19.9009 4.27658 20.42C4.49612 20.9391 4.81729 21.409 5.22119 21.8021C6.03808 22.6066 7.14051 23.0546 8.28703 23.0479H17.7229C18.8694 23.0546 19.9718 22.6066 20.7887 21.8021C21.1926 21.409 21.5138 20.9391 21.7333 20.42C21.9528 19.9009 22.0663 19.3432 22.067 18.7796V10.2646C22.5778 10.095 23.0227 9.7698 23.3394 9.33462C23.6561 8.89944 23.8286 8.37608 23.8329 7.83789V5.54123C23.8372 5.20092 23.7736 4.86318 23.6456 4.5478C23.5177 4.23242 23.3282 3.94574 23.088 3.70459C22.8479 3.46344 22.562 3.27265 22.2472 3.14343C21.9323 3.01421 21.5948 2.94915 21.2545 2.95206ZM12.9237 19.9062C12.7082 19.9062 12.5015 19.8206 12.3492 19.6683C12.1968 19.5159 12.1112 19.3092 12.1112 19.0937C12.1112 18.8782 12.1968 18.6716 12.3492 18.5192C12.5015 18.3668 12.7082 18.2812 12.9237 18.2812C13.1392 18.2812 13.3458 18.3668 13.4982 18.5192C13.6506 18.6716 13.7362 18.8782 13.7362 19.0937C13.7362 19.3092 13.6506 19.5159 13.4982 19.6683C13.3458 19.8206 13.1392 19.9062 12.9237 19.9062ZM15.2637 15.0096C15.1383 15.3066 14.9498 15.5727 14.7112 15.7896C14.4796 16.01 14.2022 16.1765 13.8987 16.2771L13.812 16.3637C13.7963 16.4094 13.7963 16.4589 13.812 16.5046V16.8837C13.812 17.0992 13.7264 17.3059 13.574 17.4583C13.4217 17.6106 13.215 17.6962 12.9995 17.6962C12.784 17.6962 12.5774 17.6106 12.425 17.4583C12.2726 17.3059 12.187 17.0992 12.187 16.8837V16.4829C12.1924 16.0929 12.317 15.7159 12.5445 15.3996C12.7579 15.0919 13.0602 14.8579 13.4112 14.7279C13.4749 14.6931 13.5333 14.6493 13.5845 14.5979C13.6494 14.5368 13.701 14.4631 13.7362 14.3812C13.7707 14.295 13.789 14.2032 13.7904 14.1104C13.7908 14.0196 13.7685 13.9302 13.7254 13.8504C13.6627 13.7433 13.5777 13.651 13.4762 13.5796C13.3338 13.4839 13.1686 13.4275 12.9974 13.4161C12.8262 13.4047 12.6551 13.4387 12.5012 13.5146C12.318 13.6071 12.1726 13.7602 12.0895 13.9479C12.0475 14.0489 11.9855 14.1404 11.9073 14.2168C11.829 14.2933 11.7361 14.3532 11.6342 14.3928C11.5323 14.4325 11.4234 14.4512 11.314 14.4478C11.2047 14.4444 11.0971 14.4189 10.9979 14.373C10.8986 14.327 10.8097 14.2614 10.7363 14.1802C10.663 14.099 10.6069 14.0039 10.5712 13.9004C10.5356 13.797 10.5212 13.6875 10.5289 13.5783C10.5366 13.4692 10.5663 13.3628 10.6162 13.2654C10.854 12.7523 11.2552 12.3326 11.7571 12.0719C12.2589 11.8112 12.833 11.7242 13.3895 11.8246C13.7688 11.8892 14.1281 12.04 14.4399 12.2653C14.7517 12.4907 15.0076 12.7847 15.1879 13.1246C15.3327 13.4223 15.4138 13.747 15.4262 14.0779C15.4379 14.3964 15.3825 14.7138 15.2637 15.0096ZM22.2079 7.78373C22.2065 7.907 22.1806 8.02878 22.1318 8.14199C22.083 8.2552 22.0122 8.3576 21.9235 8.44326C21.8348 8.52891 21.73 8.59611 21.6152 8.64096C21.5004 8.68582 21.3778 8.70743 21.2545 8.70456H4.75536C4.63158 8.70744 4.50845 8.6859 4.39299 8.64117C4.27754 8.59645 4.17203 8.52942 4.08249 8.4439C3.99296 8.35839 3.92114 8.25607 3.87116 8.1428C3.82118 8.02952 3.79401 7.90751 3.79119 7.78373V5.48706C3.79398 5.36376 3.82123 5.24225 3.87134 5.12956C3.92146 5.01687 3.99345 4.91526 4.08314 4.83061C4.17283 4.74595 4.27843 4.67995 4.39383 4.63643C4.50922 4.59291 4.63211 4.57273 4.75536 4.57706H21.2545C21.3773 4.57272 21.4996 4.59297 21.6144 4.63662C21.7292 4.68027 21.8341 4.74643 21.9229 4.83123C22.0117 4.91602 22.0827 5.01772 22.1316 5.13035C22.1806 5.24298 22.2065 5.36426 22.2079 5.48706V7.78373Z" fill="#339A00"/>
</svg>
