<svg width="66" height="57" viewBox="0 0 66 57" fill="none" xmlns="http://www.w3.org/2000/svg">
<mask id="mask0_93_474" style="mask-type:luminance" maskUnits="userSpaceOnUse" x="0" y="0" width="66" height="57">
<path d="M17 11.375V5.125C17 4.2962 17.3301 3.50134 17.9177 2.91529C18.5053 2.32924 19.3023 2 20.1333 2H60.8662C61.6972 2 62.4942 2.32924 63.0818 2.91529C63.6694 3.50134 63.9995 4.2962 63.9995 5.125V33.25C63.9995 34.0788 63.6694 34.8737 63.0818 35.4597C62.4942 36.0458 61.6972 36.375 60.8662 36.375H57.7329" stroke="white" stroke-width="3" stroke-linecap="round" stroke-linejoin="round"/>
<path d="M45.2002 20.75H4.46729C2.73681 20.75 1.33398 22.1491 1.33398 23.875V52C1.33398 53.7259 2.73681 55.125 4.46729 55.125H45.2002C46.9307 55.125 48.3335 53.7259 48.3335 52V23.875C48.3335 22.1491 46.9307 20.75 45.2002 20.75Z" fill="white" stroke="white" stroke-width="2" stroke-linecap="round" stroke-linejoin="round"/>
<path d="M1.33398 34.8125H48.3335" stroke="black" stroke-width="2" stroke-linecap="round" stroke-linejoin="round"/>
<path d="M48.3335 27V45.75M1.33398 27V45.75" stroke="white" stroke-width="2" stroke-linecap="round" stroke-linejoin="round"/>
<path d="M12.3008 44.1875H24.834M34.2339 44.1875H37.3672" stroke="black" stroke-width="2" stroke-linecap="round" stroke-linejoin="round"/>
</mask>
<g mask="url(#mask0_93_474)">
<path d="M-4.93262 -8.9375H70.2666V66.0625H-4.93262V-8.9375Z" fill="#FF6934"/>
</g>
</svg>
