<svg width="119" height="118" viewBox="0 0 119 118" fill="none" xmlns="http://www.w3.org/2000/svg">
<path d="M26.326 50.3093C25.6204 48.3494 24.1704 46.2856 22.1326 44.3418C20.0948 42.3981 17.9648 41.0472 15.9737 40.4349C13.9825 39.8227 12.3176 40.0457 11.3734 41.0357L8.3954 44.1578C7.45114 45.1478 7.3123 46.8327 8.01257 48.7813C8.71283 50.73 10.1682 52.8051 12.206 54.7489C14.2439 56.6926 16.3739 58.0435 18.365 58.6558C20.3561 59.268 22.021 59.0449 22.9652 58.055L25.9432 54.9329C26.8875 53.9429 27.0263 52.258 26.326 50.3093ZM14.6736 51.12L12.6883 53.2014C11.4909 51.9823 10.6239 50.8075 10.0308 49.7363L11.9727 47.7004C12.733 48.9443 13.6393 50.0927 14.6723 51.1213L14.6736 51.12ZM15.7143 52.1127C16.7905 53.096 17.9805 53.947 19.2589 54.6477L17.3164 56.6842C16.2183 56.1424 15.0039 55.3319 13.7296 54.1934L15.7143 52.1127ZM9.43611 45.1505L10.582 43.9491C10.6503 44.5333 10.7874 45.1073 10.9905 45.6592C11.0735 45.8887 11.17 46.1223 11.2708 46.3526L9.3841 48.3306C8.84085 46.8385 8.92179 45.6897 9.43611 45.1505ZM18.7504 57.2645L20.6371 55.2865C20.8739 55.3782 21.1098 55.4616 21.3429 55.5337C21.9038 55.7105 22.4837 55.8203 23.0704 55.861L21.9245 57.0623C21.4102 57.6015 20.2665 57.7366 18.7504 57.2645Z" fill="#EEA956"/>
<path d="M86.7156 36.3472C92.8979 34.9744 100.95 28.8382 102.176 25.8162C102.894 24.0472 99.3104 21.2831 98.3522 20.1683C96.1594 17.6254 97.0439 16.3724 97.8916 13.3411C98.859 9.89528 96.5648 6.09011 93.3125 4.59752C90.0601 3.10494 86.172 3.57483 82.9012 5.03056C79.6304 6.48629 76.8388 8.82651 74.1024 11.1299C72.103 9.86764 68.9152 4.29348 63.7556 7.91438C60.19 10.4112 59.8675 15.8472 60.3282 20.1867C61.4062 30.2018 63.8754 35.3982 68.5282 36.7986C74.4064 38.5676 80.9111 37.6371 86.7156 36.3472Z" fill="#FF6934"/>
<path d="M96.7585 7.53662C95.9754 21.0344 82.8093 29.9899 76.5626 33.9332L80.6165 37.4159C80.6165 37.4159 83.1871 37.4712 86.7066 36.3472C92.7415 34.4308 101.559 29.0132 102.167 25.8162C103.061 21.1634 98.288 22.1768 97.21 18.5007C96.648 16.5566 99.9464 12.8804 96.7585 7.53662ZM74.1118 11.1391C74.1118 11.1391 71.7624 8.73437 70.021 7.63797C69.1549 9.26876 68.5376 11.0377 68.2336 12.862C67.69 16.0683 68.2336 20.6198 69.5143 24.0103C69.717 24.5355 70.4725 24.4526 70.5554 23.8998C71.661 16.6119 74.1118 11.1391 74.1118 11.1391Z" fill="#A6340C"/>
<path d="M57.6932 35.1586C57.6932 35.1586 28.9563 38.2636 15.993 63.2137C3.02959 88.1638 14.0489 103.292 25.7132 108.802C37.3775 114.312 66.7685 116.256 85.8864 111.723C105.004 107.19 109.786 97.7919 108.892 88.7166C107.593 75.4676 95.2842 67.3229 95.2842 67.3229C95.2842 67.3229 95.7725 50.9598 83.0763 40.3366C71.8082 30.902 57.6932 35.1586 57.6932 35.1586Z" fill="#FF6934"/>
<path d="M69.4865 77.1445C63.3227 69.3683 56.044 68.3272 53.713 65.5355C52.4416 64.0153 51.6953 62.4766 51.9809 60.5694C52.2849 58.5424 54.6344 57.142 56.4586 56.8011C58.587 56.3957 63.6636 56.6076 67.9294 60.6708C68.9429 61.629 68.5744 63.1215 68.5467 64.4575C68.473 67.3229 72.573 70.1054 75.8899 67.7099C79.2159 65.3051 76.6638 59.9521 74.5171 57.3539C72.8955 55.3914 67.0173 51.0703 59.711 50.3885C57.6564 50.195 49.3919 48.9696 44.6193 58.0449C43.2465 60.6523 42.7398 66.9544 49.9263 72.2797C51.4281 73.3946 59.2227 77.3564 61.3879 79.9269C65.1377 84.377 62.5672 88.2928 59.6373 88.8087C51.6492 90.2092 47.1254 85.8881 46.287 83.5202C45.6881 81.8341 46.3146 80.0099 45.5407 78.4251C44.7483 76.7944 43.1267 76.1494 41.413 76.693C35.7928 78.4804 37.5802 84.6258 40.0679 88.0072C42.7306 91.6281 46.0013 93.8117 49.6775 95.0094C63.3964 99.4779 69.9932 92.4204 71.1449 87.2517C71.9926 83.4649 71.9004 80.1849 69.4865 77.1445Z" fill="#1E252B"/>
<path d="M66.1698 45.1368C54.4963 70.0685 52.4878 101.551 52.4878 101.551" stroke="#1E252B" stroke-width="0.625" stroke-miterlimit="10"/>
<path d="M75.8528 29.4463C83.629 31.98 85.3519 39.0099 84.7899 40.9263C84.1173 43.1744 75.5027 34.4216 62.6959 34.9468C58.2182 35.131 59.5173 32.3854 61.5903 30.8007C64.3267 28.7092 68.9242 27.1982 75.8528 29.4463Z" fill="#6D4C41"/>
<path d="M75.8528 29.4463C83.629 31.98 85.3519 39.0099 84.7899 40.9263C84.1173 43.1744 75.5027 34.4216 62.6959 34.9468C58.2182 35.131 59.5173 32.3854 61.5903 30.8007C64.3267 28.7092 68.9242 27.1982 75.8528 29.4463Z" fill="#1E252B"/>
<path d="M89.5074 54.2306C90.4841 53.558 93.7641 54.7189 94.6854 61.1407C95.1369 64.2825 95.2751 67.3229 95.2751 67.3229C95.2751 67.3229 91.4054 63.8494 90.1247 61.4079C88.5124 58.3213 87.8859 55.3362 89.5074 54.2306Z" fill="#A6340C"/>
</svg>
