<svg width="161" height="102" viewBox="0 0 161 102" fill="none" xmlns="http://www.w3.org/2000/svg">
<path d="M151.707 50.6591L150.936 49.3071C151.943 48.0297 152.556 46.4584 152.692 44.8027C152.829 43.1469 152.483 41.4854 151.701 40.0396C151.159 39.0921 150.432 38.2773 149.567 37.6499C148.702 37.0226 147.719 36.5973 146.686 36.4027C145.718 36.2073 144.725 36.1943 143.754 36.3643L148.047 18.171L81.4941 0.591949L62.5992 80.6503L129.153 98.2294L138.706 57.7499L147.876 51.9592L148.348 52.783C148.41 52.8907 148.451 53.0103 148.469 53.1348C148.487 53.2593 148.481 53.3862 148.452 53.5083C148.424 53.6304 148.372 53.7452 148.301 53.8461C148.23 53.9471 148.14 54.0321 148.038 54.0964L141.055 58.5084C140.61 58.7894 140.289 59.2455 140.163 59.7763C140.038 60.3071 140.118 60.8692 140.386 61.3389C140.653 61.8087 141.087 62.1475 141.592 62.281C142.096 62.4144 142.629 62.3316 143.075 62.0506L150.06 57.6392C151.157 56.9448 151.946 55.8199 152.255 54.5114C152.564 53.2028 152.367 51.8174 151.707 50.6591ZM92.0947 19.8702L130.13 29.9167L129.185 33.9196L91.1499 23.8731L92.0947 19.8702ZM89.7328 29.8775L127.768 39.924L126.823 43.9269L88.7881 33.8804L89.7328 29.8775ZM87.371 39.8848L112.328 46.477L111.384 50.4799L86.4262 43.8877L87.371 39.8848ZM114.443 83.4366L95.8937 78.537C93.7498 77.9707 91.7939 77.2282 91.1654 75.0981C90.5202 72.921 92.1219 71.0132 93.2925 69.6161C93.4994 69.3705 93.2707 68.938 92.8227 69.2316C91.5099 70.0861 89.3654 71.6832 87.6411 72.9659C85.8182 74.3236 85.0973 74.8534 84.7305 75.0595C84.3222 75.3633 83.8292 75.5149 83.3292 75.4907C82.8293 75.4664 82.3508 75.2676 81.9693 74.9256C81.6351 74.5847 81.4156 74.1383 81.3442 73.6545C81.2729 73.1708 81.3536 72.676 81.5741 72.2458C81.8215 71.6467 85.1613 65.1349 88.1759 59.284C85.2302 62.5644 76.041 72.2912 75.6098 72.7488C75.2893 73.0881 74.8536 73.2791 74.3986 73.2798C73.9436 73.2805 73.5066 73.0908 73.1836 72.7524C72.8606 72.4141 72.6782 71.9548 72.6765 71.4756C72.6748 70.9964 72.8538 70.5365 73.1743 70.1972C73.2912 70.0766 84.8042 57.8858 86.3199 56.0748C86.8502 55.331 87.6294 54.8276 88.4999 54.6663C89.3704 54.505 90.2673 54.6979 91.0095 55.2059C91.6681 55.7128 92.1203 56.4632 92.2752 57.3061C92.43 58.1489 92.2759 59.0214 91.844 59.7479C90.1687 62.9944 88.4556 66.3266 87.1287 68.9209C88.5267 67.8869 89.9829 66.831 91.0125 66.1595C91.8323 65.528 92.8265 65.1971 93.8431 65.2175C94.8597 65.2379 95.8428 65.6084 96.6421 66.2723C97.1315 66.7188 97.465 67.325 97.5892 67.9939C97.7133 68.6627 97.621 69.3555 97.3268 69.9615C96.911 70.698 96.4204 71.3848 95.8637 72.0096C94.9014 73.2304 94.9098 74.5536 96.721 75.032L115.268 79.9309C115.709 80.0475 116.089 80.3437 116.323 80.7546C116.558 81.1654 116.628 81.6572 116.518 82.1217C116.409 82.5861 116.128 82.9853 115.739 83.2313C115.349 83.4773 114.883 83.55 114.441 83.4335L114.443 83.4366ZM112.479 69.4959L105.884 69.5798C105.787 69.5823 105.692 69.5576 105.608 69.5082C105.523 69.4588 105.453 69.3866 105.404 69.299C105.353 69.2127 105.325 69.1135 105.323 69.012C105.321 68.9104 105.345 68.8101 105.392 68.7216L108.505 62.6362L128.06 50.2866L131.99 57.1718L112.479 69.4959ZM146.503 48.0061L135.346 55.0523L131.416 48.1671L142.573 41.1208C143.576 40.4672 144.775 40.229 145.938 40.4521L146.153 40.5011C146.604 40.6108 147.03 40.8141 147.406 41.0991C147.782 41.3842 148.1 41.7452 148.342 42.161C148.828 43.196 148.907 44.3899 148.563 45.484C148.219 46.578 147.479 47.4841 146.503 48.0061Z" fill="#0ECC8D"/>
<path d="M24.3864 76.4036L21.8835 78.4432C20.2104 79.8065 17.8128 79.4704 16.5332 77.6931L4.77952 61.3825C3.4999 59.6051 3.81938 57.0549 5.49245 55.6915L8.00718 53.6535C9.68026 52.2901 12.0778 52.6263 13.3575 54.4036L25.0993 70.7126C26.3789 72.4899 26.0595 75.0402 24.3864 76.4036ZM32.9466 64.002L28.7438 67.4268L17.2784 51.5018L33.2596 38.4788L44.725 54.4038L40.5223 57.8286L64.2721 90.8162C65.8691 93.0343 65.4709 96.2127 63.3813 97.9268C61.2918 99.6408 58.3052 99.2093 56.6964 96.9895L32.9466 64.002ZM53.9947 52.2646C52.3216 53.628 49.924 53.2919 48.6444 51.5145L36.9025 35.2056C35.6229 33.4283 35.9424 30.878 37.6155 29.5146L40.1184 27.475C41.7915 26.1116 44.1891 26.4478 45.4687 28.2251L57.2223 44.5357C58.502 46.313 58.1825 48.8633 56.5094 50.2267L54.0065 52.2663L53.9947 52.2646Z" fill="#EEA956"/>
</svg>
