<svg width="85" height="75" viewBox="0 0 85 75" fill="none" xmlns="http://www.w3.org/2000/svg">
<path fill-rule="evenodd" clip-rule="evenodd" d="M51.065 0C59.5701 0 66.4649 6.84006 66.4649 15.2778C66.4649 18.061 65.7169 20.6688 64.4042 22.9176C63.0914 25.1665 51.065 45.8335 51.065 45.8335C51.065 45.8335 39.0385 25.1665 37.7257 22.9176C36.413 20.6688 35.6651 18.061 35.6651 15.2778C35.6651 6.84025 42.5598 0 51.065 0ZM57.6646 15.2778C57.6646 18.894 54.7097 21.8254 51.0646 21.8254C47.4196 21.8254 44.4648 18.894 44.4648 15.2778C44.4648 11.6617 47.4196 8.7303 51.0646 8.7303C54.7095 8.7303 57.6646 11.6617 57.6646 15.2778ZM30.276 29.1872H1.71643L21.3426 55.148L37.7187 40.7067C35.0069 37.0198 32.4322 33.2186 30.276 29.1872ZM60.8662 54.1872H84.6661V75H80.866L60.8662 54.1872ZM69.266 75H36.3663L26.4002 61.8377L42.7608 47.4105L69.266 75ZM0.666504 41.6872L25.8664 75H0.666504V41.6872ZM84.6665 29.1872H71.8565L60.4712 45.8538H84.6665V29.1872Z" fill="#FF6934"/>
</svg>
