<svg width="57" height="70" viewBox="0 0 57 70" fill="none" xmlns="http://www.w3.org/2000/svg">
<path d="M15.7681 28.087H41.855M15.7681 54.1739H41.855M15.7681 41.1304H28.8116M2.72461 65.2609V3.95652C2.72461 3.43762 2.93074 2.93997 3.29766 2.57305C3.66458 2.20613 4.16223 2 4.68113 2H42.6768C43.1955 2.00046 43.6928 2.20689 44.0594 2.57391L54.3246 12.8391C54.5071 13.0214 54.6518 13.238 54.7503 13.4764C54.8488 13.7148 54.8992 13.9703 54.8985 14.2283V65.2609C54.8985 65.5178 54.8479 65.7722 54.7496 66.0096C54.6513 66.247 54.5072 66.4627 54.3255 66.6443C54.1438 66.826 53.9281 66.9701 53.6907 67.0685C53.4534 67.1668 53.1989 67.2174 52.942 67.2174H4.68113C4.4242 67.2174 4.16978 67.1668 3.9324 67.0685C3.69503 66.9701 3.47934 66.826 3.29766 66.6443C3.11598 66.4627 2.97187 66.247 2.87354 66.0096C2.77522 65.7722 2.72461 65.5178 2.72461 65.2609Z" stroke="#0ECC8D" stroke-width="4" stroke-linecap="round" stroke-linejoin="round"/>
<path d="M41.855 2V13.087C41.855 13.6059 42.0611 14.1035 42.428 14.4704C42.7949 14.8373 43.2926 15.0435 43.8115 15.0435H54.8985" stroke="#0ECC8D" stroke-width="4" stroke-linecap="round" stroke-linejoin="round"/>
</svg>
