<svg width="75" height="76" viewBox="0 0 75 76" fill="none" xmlns="http://www.w3.org/2000/svg">
<path d="M58.3333 34.2807V0.947388H16.6667V17.6141H0V75.9474H33.3333V59.2807H41.6667V75.9474H75V34.2807H58.3333ZM16.6667 67.6141H8.33333V59.2807H16.6667V67.6141ZM16.6667 50.9474H8.33333V42.6141H16.6667V50.9474ZM16.6667 34.2807H8.33333V25.9474H16.6667V34.2807ZM33.3333 50.9474H25V42.6141H33.3333V50.9474ZM33.3333 34.2807H25V25.9474H33.3333V34.2807ZM33.3333 17.6141H25V9.28072H33.3333V17.6141ZM50 50.9474H41.6667V42.6141H50V50.9474ZM50 34.2807H41.6667V25.9474H50V34.2807ZM50 17.6141H41.6667V9.28072H50V17.6141ZM66.6667 67.6141H58.3333V59.2807H66.6667V67.6141ZM66.6667 50.9474H58.3333V42.6141H66.6667V50.9474Z" fill="#EEA956"/>
</svg>
