<svg width="75" height="73" viewBox="0 0 75 73" fill="none" xmlns="http://www.w3.org/2000/svg">
<mask id="mask0_76_227" style="mask-type:alpha" maskUnits="userSpaceOnUse" x="0" y="0" width="75" height="73">
<rect y="0.947388" width="75" height="72" fill="#FF6934"/>
</mask>
<g mask="url(#mask0_76_227)">
<path d="M65.469 152.177L81.0273 143.605C82.1499 142.987 83.1273 142.155 83.899 141.162C84.6707 140.168 85.2202 139.034 85.5135 137.83L87.4225 130.025C87.692 128.999 88.1096 128.014 88.6633 127.098C89.9488 124.888 90.3232 122.299 89.7132 119.84L85.6225 103.476C84.9111 100.562 83.3623 97.8955 81.15 95.7751L71.2233 86.1363C62.5909 77.8603 55.1199 68.5514 48.9972 58.4424C48.5315 57.6909 48.1434 56.898 47.8382 56.075C46.9206 53.5164 46.8539 50.75 47.6472 48.1539C48.4404 45.5578 50.0548 43.2587 52.2697 41.5712L55.5559 39.0737C56.0564 38.6771 56.459 38.18 56.7348 37.6179C57.0106 37.0557 57.1528 36.4424 57.1513 35.8217C57.1666 34.6697 57.5095 33.5433 58.1435 32.5628C58.7775 31.5822 59.6788 30.7843 60.7511 30.2543L71.4551 24.9341C71.8045 24.7867 72.1112 24.5605 72.3487 24.275C72.5862 23.9895 72.7475 23.6532 72.8187 23.2951C72.868 22.9883 72.8469 22.675 72.757 22.3768C72.6671 22.0785 72.5105 21.8024 72.2979 21.5674C72.0854 21.3325 71.8219 21.1443 71.5257 21.0159C71.2296 20.8875 70.9077 20.8219 70.5824 20.8236H69.2188C66.2354 20.8229 63.3066 20.0593 60.7375 18.6123C59.7517 18.0434 58.9732 17.1991 58.5073 16.1939C58.0414 15.1888 57.9108 14.0712 58.1331 12.9928L58.8148 9.59777C58.8772 9.23157 58.8568 8.85688 58.7549 8.49884C58.6529 8.1408 58.4719 7.80769 58.224 7.52188C57.976 7.23606 57.6669 7.00415 57.3172 6.84169C56.9676 6.67923 56.5856 6.58999 56.1968 6.57995H49.379C49.0859 6.57732 48.7971 6.51299 48.5331 6.39157C48.2691 6.27014 48.0364 6.09461 47.8518 5.87751L44.3065 1.64995C44.0356 1.326 43.6592 1.09759 43.2367 1.00098C42.8143 0.90436 42.3702 0.94506 41.9748 1.11662L36.8069 3.35398C36.3733 3.5235 36.015 3.8317 35.7936 4.2257C35.5721 4.6197 35.5013 5.07493 35.5933 5.51329C35.6611 5.76879 35.6716 6.03506 35.6242 6.2947C35.5767 6.55435 35.4724 6.80153 35.3179 7.02007C35.1635 7.2386 34.9625 7.42358 34.728 7.56292C34.4935 7.70227 34.2308 7.79283 33.957 7.82869L18.7669 9.75388C18.2215 9.81691 17.6683 9.76813 17.1443 9.61079L12.8627 8.31C11.9121 8.07359 10.9145 8.0688 9.96147 8.29609C9.00844 8.52337 8.13055 8.97545 7.40842 9.61079C6.25758 10.5959 4.84048 11.2538 3.31773 11.5099L2.52686 11.601L9.83557 19.874C9.95637 20.0077 10.109 20.1119 10.2806 20.1778C10.4523 20.2437 10.638 20.2695 10.8222 20.2529C11.0064 20.2364 11.1838 20.178 11.3395 20.0826C11.4953 19.9873 11.6248 19.8578 11.7173 19.7049C11.7985 19.5716 11.9085 19.4562 12.0398 19.3663C12.1712 19.2764 12.321 19.214 12.4794 19.1833C12.6378 19.1526 12.8013 19.1542 12.959 19.188C13.1167 19.2219 13.2651 19.2872 13.3945 19.3797L16.1898 21.3829C16.4134 21.546 16.5672 21.7812 16.6224 22.0445C16.6776 22.3078 16.6304 22.5812 16.4898 22.8138L14.3626 26.3259C14.1224 26.7218 14.055 27.1919 14.1749 27.6348C14.2948 28.0777 14.5924 28.4579 15.0035 28.6934L20.4578 31.8153C20.7392 31.9718 21.0592 32.0543 21.385 32.0543C21.7108 32.0543 22.0308 31.9718 22.3122 31.8153L24.6848 30.5145C24.9313 30.3788 25.2076 30.2999 25.4916 30.2841C25.7757 30.2683 26.0598 30.316 26.3211 30.4234L32.2799 32.8299C32.6929 32.9925 33.0285 33.2948 33.2222 33.6789C33.416 34.063 33.4543 34.5018 33.3298 34.9112C33.2344 35.229 33.2349 35.5661 33.3314 35.8837C33.4279 36.2012 33.6164 36.4864 33.8752 36.7062L36.3706 38.7875C36.7847 39.1418 37.0805 39.6045 37.2211 40.1179C37.3618 40.6314 37.341 41.173 37.1614 41.6753L36.5206 43.4573C36.2895 44.0936 35.8169 44.6242 35.1959 44.9444C34.575 45.2647 33.8508 45.3514 33.1662 45.1874L30.9981 44.6541C30.2182 44.4635 29.3934 44.5339 28.6613 44.8535C27.9292 45.1731 27.3342 45.7225 26.9756 46.4101C26.6297 47.0695 26.5211 47.8192 26.6665 48.5433C26.8119 49.2675 27.2033 49.9258 27.7801 50.4166L33.7252 55.4896C34.371 56.0393 35.2052 56.3447 36.0706 56.3482H37.2569C37.8771 56.3482 38.4862 56.5046 39.0226 56.8016C39.559 57.0985 40.0036 57.5255 40.3113 58.0392L42.493 61.6944C45.5592 66.832 49.4103 71.5054 53.9196 75.5608L56.8513 78.1624C57.0965 78.3812 57.3037 78.6359 57.4649 78.9169L59.6875 82.8843C59.949 83.3456 60.335 83.7319 60.8057 84.003L64.5146 86.1753C65.1787 86.5582 65.667 87.166 65.8819 87.8774C66.0968 88.5888 66.0224 89.3513 65.6736 90.0126C65.4233 90.4888 65.3127 91.0207 65.3535 91.552C65.3943 92.0833 65.585 92.5941 65.9054 93.0304L68.128 96.0613C68.5955 96.6913 68.7819 97.4726 68.6462 98.2336L66.8872 108.393C66.5558 110.353 66.8752 112.364 67.8008 114.142C68.4933 115.453 68.8529 116.902 68.8507 118.37V126.539C68.8487 127.245 68.646 127.937 68.2642 128.542C67.8824 129.146 67.3358 129.641 66.6826 129.973L56.6468 135.059L51.8061 137.726C50.9553 138.198 50.3119 138.948 49.9938 139.837C49.6757 140.726 49.7043 141.694 50.0744 142.565L51.7107 146.389C51.8252 146.652 51.8749 146.936 51.856 147.22C51.8371 147.505 51.7501 147.781 51.6016 148.028C51.4513 148.274 51.2436 148.485 50.9945 148.643C50.7454 148.8 50.4616 148.901 50.1651 148.938C49.8685 148.974 49.5671 148.945 49.2842 148.853C49.0013 148.76 48.7445 148.607 48.5336 148.405C47.7073 147.618 46.6674 147.066 45.5306 146.811C44.3938 146.556 43.205 146.608 42.0975 146.961L39.1113 147.898C38.2325 148.189 37.4285 148.654 36.7524 149.264L31.9663 153.634L32.4162 153.894C32.7219 154.06 33.0606 154.163 33.4105 154.197C33.7603 154.23 34.1137 154.194 34.4479 154.09L34.9933 153.907C35.4597 153.751 35.9628 153.723 36.4451 153.826C36.9275 153.93 37.3694 154.161 37.7205 154.493C38.084 154.868 38.313 155.344 38.3743 155.851C38.4355 156.358 38.326 156.871 38.0614 157.315L37.3387 158.512C37.1185 158.872 37.001 159.28 36.9978 159.696V166.603L36.6705 168.554C36.5394 169.175 36.6498 169.819 36.9811 170.368C37.3125 170.916 37.8419 171.33 38.4704 171.533C39.0588 171.708 39.6918 171.687 40.2663 171.474C40.8407 171.262 41.3228 170.87 41.6339 170.362C43.1438 167.922 45.3724 165.959 48.0427 164.717L52.1334 163.169C53.6045 162.618 54.8674 161.656 55.7576 160.41C56.6478 159.164 57.1239 157.692 57.124 156.184V155.312C57.1226 154.777 57.3432 154.262 57.7376 153.881L59.8784 151.813C60.2822 151.429 60.8289 151.214 61.3988 151.214C61.9687 151.214 62.5154 151.429 62.9192 151.813C63.2438 152.132 63.669 152.34 64.1297 152.406C64.5903 152.472 65.0608 152.391 65.469 152.177Z" fill="#FF6934"/>
</g>
</svg>
