<svg width="49" height="48" viewBox="0 0 49 48" fill="none" xmlns="http://www.w3.org/2000/svg">
<path d="M38.8105 29.0117L31.2937 25.4261L28.1152 23.9098C29.5033 23.0352 30.6308 21.6854 31.3686 20.0597C31.9846 18.7045 32.3029 17.2331 32.3022 15.7445C32.3022 14.8675 32.163 14.0347 31.9691 13.2312C31.0235 9.33744 27.9827 6.46896 24.3323 6.46896C20.751 6.46896 17.7563 9.2352 16.7521 13.0181C16.5203 13.8859 16.3609 14.7883 16.3609 15.7445C16.3609 17.4048 16.7488 18.9528 17.4078 20.2992C18.1696 21.8611 19.299 23.149 20.6737 23.977L17.6296 25.3944L9.86891 29.0088C9.19499 29.3246 8.75195 30.085 8.75195 30.9341V39.4613C8.75195 40.6042 9.54827 41.5306 10.5313 41.5306H22.0576V35.0016C22.0596 34.9343 22.0793 34.8688 22.1147 34.8115L22.1099 34.8086L23.9977 31.5389L24.0025 31.5418C24.0697 31.4266 24.1892 31.345 24.3323 31.345C24.4753 31.345 24.5948 31.4261 24.662 31.5418L24.664 31.5403L24.6812 31.5706L24.6889 31.584L26.5518 34.8101L26.5494 34.8115C26.5848 34.8689 26.6045 34.9346 26.6065 35.0021V41.531H38.1328C39.1158 41.531 39.9126 40.6046 39.9126 39.4618V30.9341C39.914 30.0878 39.4782 29.3347 38.8105 29.0117ZM26.5508 26.8253L26.5556 26.8282L24.6673 30.0979L24.6625 30.095C24.6296 30.1538 24.5818 30.2029 24.5239 30.2374C24.466 30.2718 24.4001 30.2904 24.3328 30.2914C24.2654 30.2904 24.1995 30.2718 24.1416 30.2374C24.0837 30.2029 24.0359 30.1538 24.003 30.095L24.0006 30.0965L23.9814 30.0634L23.9756 30.0538L22.1128 26.8267L22.1147 26.8253C22.0792 26.7679 22.0595 26.7022 22.0576 26.6347C22.0576 26.4211 22.2308 26.2478 22.4444 26.2478H26.2201C26.4337 26.2478 26.607 26.4211 26.607 26.6347C26.6063 26.7022 26.5868 26.7682 26.5508 26.8253Z" fill="#EEA956"/>
</svg>
