<svg width="93" height="75" viewBox="0 0 93 75" fill="none" xmlns="http://www.w3.org/2000/svg">
<path d="M17.6568 68.3823H8.83329C7.66322 68.3823 6.54107 67.9175 5.71371 67.0902C4.88634 66.2628 4.42153 65.1406 4.42153 63.9706V48.5294C3.25146 48.5294 2.12931 48.0646 1.30194 47.2372C0.474576 46.4099 0.00976562 45.2877 0.00976562 44.1176V30.8823C0.00976562 29.1272 0.706979 27.444 1.94803 26.203C3.18908 24.9619 4.8723 24.2647 6.62741 24.2647H19.8627C21.6178 24.2647 23.301 24.9619 24.5421 26.203C25.7831 27.444 26.4804 29.1272 26.4804 30.8823V44.1176C26.4804 45.2877 26.0155 46.4099 25.1882 47.2372C24.3608 48.0646 23.2387 48.5294 22.0686 48.5294V63.9706C22.0686 65.1406 21.6038 66.2628 20.7764 67.0902C19.949 67.9175 18.8269 68.3823 17.6568 68.3823ZM6.62741 28.6765C6.33269 28.657 6.0372 28.7006 5.76073 28.8046C5.48426 28.9086 5.23319 29.0704 5.02433 29.2793C4.81547 29.4881 4.65365 29.7392 4.54969 30.0156C4.44573 30.2921 4.40203 30.5876 4.42153 30.8823V44.1176H8.83329V63.9706H17.6568V44.1176H22.0686V30.8823C22.0881 30.5876 22.0444 30.2921 21.9404 30.0156C21.8365 29.7392 21.6746 29.4881 21.4658 29.2793C21.2569 29.0704 21.0059 28.9086 20.7294 28.8046C20.4529 28.7006 20.1574 28.657 19.8627 28.6765H6.62741ZM13.2451 22.0588C11.4999 22.0588 9.79399 21.5413 8.34297 20.5718C6.89195 19.6022 5.76101 18.2242 5.09318 16.6119C4.42535 14.9996 4.25061 13.2255 4.59107 11.5139C4.93153 9.80229 5.77189 8.23009 7.00588 6.9961C8.23987 5.76211 9.81208 4.92175 11.5237 4.58129C13.2353 4.24083 15.0094 4.41557 16.6217 5.0834C18.234 5.75123 19.612 6.88216 20.5816 8.33319C21.5511 9.78421 22.0686 11.4901 22.0686 13.2353C22.0686 15.5754 21.139 17.8197 19.4842 19.4745C17.8295 21.1292 15.5852 22.0588 13.2451 22.0588ZM13.2451 8.82351C12.3725 8.82351 11.5195 9.08226 10.794 9.56703C10.0685 10.0518 9.50304 10.7408 9.16912 11.547C8.8352 12.3531 8.74784 13.2402 8.91807 14.096C9.08829 14.9518 9.50848 15.7379 10.1255 16.3549C10.7425 16.9719 11.5286 17.392 12.3844 17.5623C13.2402 17.7325 14.1272 17.6451 14.9334 17.3112C15.7395 16.9773 16.4285 16.4118 16.9133 15.6863C17.3981 14.9608 17.6568 14.1078 17.6568 13.2353C17.6568 12.0652 17.192 10.9431 16.3646 10.1157C15.5373 9.28832 14.4151 8.82351 13.2451 8.82351Z" fill="#0ECC8D"/>
<path d="M83.8336 68.3823H75.0101C73.84 68.3823 72.7178 67.9175 71.8905 67.0902C71.0631 66.2628 70.5983 65.1406 70.5983 63.9706V48.5294C69.4282 48.5294 68.3061 48.0646 67.4787 47.2372C66.6513 46.4099 66.1865 45.2877 66.1865 44.1176V30.8823C66.1865 29.1272 66.8837 27.444 68.1248 26.203C69.3658 24.9619 71.0491 24.2647 72.8042 24.2647H86.0395C87.7946 24.2647 89.4778 24.9619 90.7188 26.203C91.9599 27.444 92.6571 29.1272 92.6571 30.8823V44.1176C92.6571 45.2877 92.1923 46.4099 91.3649 47.2372C90.5376 48.0646 89.4154 48.5294 88.2453 48.5294V63.9706C88.2453 65.1406 87.7805 66.2628 86.9532 67.0902C86.1258 67.9175 85.0037 68.3823 83.8336 68.3823ZM72.8042 28.6765C72.5094 28.657 72.214 28.7006 71.9375 28.8046C71.661 28.9086 71.4099 29.0704 71.2011 29.2793C70.9922 29.4881 70.8304 29.7392 70.7264 30.0156C70.6225 30.2921 70.5788 30.5876 70.5983 30.8823V44.1176H75.0101V63.9706H83.8336V44.1176H88.2453V30.8823C88.2648 30.5876 88.2211 30.2921 88.1172 30.0156C88.0132 29.7392 87.8514 29.4881 87.6425 29.2793C87.4337 29.0704 87.1826 28.9086 86.9061 28.8046C86.6297 28.7006 86.3342 28.657 86.0395 28.6765H72.8042ZM79.4218 22.0588C77.6767 22.0588 75.9707 21.5413 74.5197 20.5718C73.0687 19.6022 71.9378 18.2242 71.2699 16.6119C70.6021 14.9996 70.4274 13.2255 70.7678 11.5139C71.1083 9.80229 71.9486 8.23009 73.1826 6.9961C74.4166 5.76211 75.9888 4.92175 77.7004 4.58129C79.412 4.24083 81.1861 4.41557 82.7984 5.0834C84.4107 5.75123 85.7888 6.88216 86.7583 8.33319C87.7279 9.78421 88.2453 11.4901 88.2453 13.2353C88.2453 15.5754 87.3157 17.8197 85.661 19.4745C84.0063 21.1292 81.762 22.0588 79.4218 22.0588ZM79.4218 8.82351C78.5493 8.82351 77.6963 9.08226 76.9708 9.56703C76.2453 10.0518 75.6798 10.7408 75.3459 11.547C75.012 12.3531 74.9246 13.2402 75.0948 14.096C75.2651 14.9518 75.6852 15.7379 76.3022 16.3549C76.9192 16.9719 77.7053 17.392 78.5611 17.5623C79.4169 17.7325 80.304 17.6451 81.1101 17.3112C81.9163 16.9773 82.6053 16.4118 83.0901 15.6863C83.5748 14.9608 83.8336 14.1078 83.8336 13.2353C83.8336 12.0652 83.3688 10.9431 82.5414 10.1157C81.714 9.28832 80.5919 8.82351 79.4218 8.82351Z" fill="#0ECC8D"/>
<path d="M51.4808 75H41.1867C39.8216 75 38.5124 74.455 37.5472 73.485C36.5819 72.515 36.0396 71.1994 36.0396 69.8276V51.7241C34.6746 51.7241 33.3654 51.1792 32.4001 50.2092C31.4349 49.2392 30.8926 47.9235 30.8926 46.5517V31.0345C30.8926 28.9768 31.706 27.0033 33.1539 25.5483C34.6018 24.0933 36.5655 23.2759 38.6132 23.2759H54.0543C56.102 23.2759 58.0657 24.0933 59.5136 25.5483C60.9615 27.0033 61.7749 28.9768 61.7749 31.0345V46.5517C61.7749 47.9235 61.2327 49.2392 60.2674 50.2092C59.3021 51.1792 57.993 51.7241 56.6279 51.7241V69.8276C56.6279 71.1994 56.0856 72.515 55.1203 73.485C54.1551 74.455 52.8459 75 51.4808 75ZM38.6132 28.4483C38.2693 28.4254 37.9246 28.4766 37.602 28.5985C37.2795 28.7204 36.9866 28.9101 36.7429 29.155C36.4992 29.3999 36.3104 29.6942 36.1892 30.0184C36.0679 30.3425 36.0169 30.6889 36.0396 31.0345V46.5517H41.1867V69.8276H51.4808V46.5517H56.6279V31.0345C56.6506 30.6889 56.5996 30.3425 56.4784 30.0184C56.3571 29.6942 56.1683 29.3999 55.9246 29.155C55.6809 28.9101 55.388 28.7204 55.0655 28.5985C54.7429 28.4766 54.3982 28.4254 54.0543 28.4483H38.6132ZM46.3338 20.6897C44.2978 20.6897 42.3075 20.0829 40.6147 18.9462C38.9218 17.8095 37.6024 16.1939 36.8232 14.3036C36.0441 12.4134 35.8402 10.3334 36.2374 8.32666C36.6346 6.31996 37.6151 4.47668 39.0547 3.02993C40.4944 1.58318 42.3286 0.597935 44.3255 0.198778C46.3223 -0.20038 48.3921 0.00448222 50.2731 0.787458C52.1541 1.57043 53.7619 2.89636 54.893 4.59755C56.0241 6.29875 56.6279 8.29882 56.6279 10.3448C56.6279 13.0885 55.5433 15.7197 53.6128 17.6597C51.6823 19.5998 49.0639 20.6897 46.3338 20.6897ZM46.3338 5.17242C45.3158 5.17242 44.3206 5.47577 43.4742 6.04413C42.6278 6.61248 41.9681 7.4203 41.5785 8.36543C41.1889 9.31057 41.087 10.3506 41.2856 11.3539C41.4842 12.3573 41.9744 13.2789 42.6942 14.0023C43.4141 14.7257 44.3312 15.2183 45.3296 15.4179C46.328 15.6174 47.3629 15.515 48.3035 15.1235C49.244 14.732 50.0478 14.0691 50.6134 13.2185C51.1789 12.3679 51.4808 11.3678 51.4808 10.3448C51.4808 8.97302 50.9385 7.6574 49.9733 6.68738C49.008 5.71737 47.6988 5.17242 46.3338 5.17242Z" fill="#0ECC8D"/>
</svg>
