<svg width="60" height="61" viewBox="0 0 60 61" fill="none" xmlns="http://www.w3.org/2000/svg">
<path d="M15.9624 49.9048V33.0623H21.1624C21.3907 33.0623 21.6266 33.0857 21.8699 33.1323C22.1132 33.179 22.3491 33.244 22.5774 33.3273L37.6299 38.8523C38.3732 39.124 38.9866 39.5707 39.4699 40.1923C39.9516 40.814 40.1924 41.5132 40.1924 42.2898C40.1924 42.7482 40.0424 43.1198 39.7424 43.4048C39.4424 43.6898 39.0732 43.8315 38.6349 43.8298H35.6299C34.7799 43.8298 33.9507 43.7798 33.1424 43.6798C32.3341 43.5798 31.5416 43.3915 30.7649 43.1148L26.2849 41.5048L25.5674 43.3648L30.4774 45.0523C31.2641 45.319 32.0774 45.5023 32.9174 45.6023C33.7574 45.704 34.6082 45.7548 35.4699 45.7548H48.3649C49.5066 45.7548 50.4816 46.1298 51.2899 46.8798C52.0982 47.6298 52.5016 48.569 52.4999 49.6973L35.0149 55.4673L15.9624 49.9048ZM5.9624 53.4473V33.0623H13.4624V53.4473H5.9624ZM35.2399 22.0523H37.2599V20.0323H35.2399V22.0523ZM30.2399 22.0523H32.2599V20.0323H30.2399V22.0523ZM35.2399 27.0523H37.2599V25.0323H35.2399V27.0523ZM30.2399 27.0523H32.2599V25.0323H30.2399V27.0523ZM42.0349 37.8698C41.6432 36.8798 41.0182 35.9923 40.1599 35.2073C39.2999 34.4223 38.1582 33.7698 36.7349 33.2498L19.9999 27.0998H17.4999V19.1723L33.7499 7.58484L49.9999 19.1698V37.8698H42.0349Z" fill="#0ECC8D"/>
</svg>
