<svg width="49" height="48" viewBox="0 0 49 48" fill="none" xmlns="http://www.w3.org/2000/svg">
<path fill-rule="evenodd" clip-rule="evenodd" d="M25.4755 6.24C25.2338 6.08493 24.9526 6.0025 24.6655 6.0025C24.3783 6.0025 24.0972 6.08493 23.8555 6.24L2.85547 19.74L4.47547 22.26L6.66547 20.856V40.5C6.66547 40.8978 6.8235 41.2794 7.10481 41.5607C7.38611 41.842 7.76764 42 8.16547 42H41.1655C41.5633 42 41.9448 41.842 42.2261 41.5607C42.5074 41.2794 42.6655 40.8978 42.6655 40.5V20.856L44.8555 22.263L46.4755 19.737L25.4755 6.24ZM20.1655 27C19.7676 27 19.3861 27.158 19.1048 27.4393C18.8235 27.7206 18.6655 28.1022 18.6655 28.5V39H21.6655V30H27.6655V39H30.6655V28.5C30.6655 28.1022 30.5074 27.7206 30.2261 27.4393C29.9448 27.158 29.5633 27 29.1655 27H20.1655Z" fill="#0ECC8D"/>
</svg>
