<svg width="72" height="72" viewBox="0 0 72 72" fill="none" xmlns="http://www.w3.org/2000/svg">
<path d="M52.5715 22.1907C56.3459 21.3525 61.2622 17.6063 62.0103 15.7613C62.449 14.6813 60.2609 12.9938 59.6759 12.3132C58.3372 10.7607 58.8772 9.99567 59.3947 8.14504C59.9853 6.04129 58.5847 3.71817 56.599 2.80692C54.6134 1.89567 52.2397 2.18254 50.2428 3.07129C48.2459 3.96004 46.5415 5.38879 44.8709 6.79504C43.6503 6.02442 41.704 2.62129 38.554 4.83192C36.3772 6.35629 36.1803 9.67504 36.4615 12.3244C37.1197 18.4388 38.6272 21.6113 41.4678 22.4663C45.0565 23.5463 49.0278 22.9782 52.5715 22.1907Z" fill="#0ECC8D"/>
<path d="M58.7032 4.6012C58.225 12.8418 50.1869 18.3093 46.3732 20.7168L48.8482 22.8431C48.8482 22.8431 50.4175 22.8768 52.5663 22.1906C56.2507 21.0206 61.6338 17.7131 62.005 15.7612C62.5507 12.9206 59.6369 13.5393 58.9788 11.2949C58.6357 10.1081 60.6494 7.8637 58.7032 4.6012ZM44.8769 6.80057C44.8769 6.80057 43.4425 5.33245 42.3794 4.66307C41.8507 5.6587 41.4738 6.7387 41.2882 7.85245C40.9563 9.80995 41.2882 12.5887 42.07 14.6587C42.1938 14.9793 42.655 14.9287 42.7057 14.5912C43.3807 10.1418 44.8769 6.80057 44.8769 6.80057Z" fill="#0C9769"/>
<path d="M34.8516 21.4649C34.8516 21.4649 17.3072 23.3606 9.39287 38.5931C1.4785 53.8256 8.206 63.0618 15.3272 66.4256C22.4485 69.7893 40.3922 70.9762 52.0641 68.2087C63.736 65.4412 66.6554 59.7037 66.1097 54.1631C65.3166 46.0743 57.8016 41.1018 57.8016 41.1018C57.8016 41.1018 58.0997 31.1118 50.3485 24.6262C43.4691 18.8662 34.8516 21.4649 34.8516 21.4649Z" fill="#0ECC8D"/>
<path d="M42.0522 47.0982C38.289 42.3507 33.8453 41.715 32.4222 40.0107C31.6459 39.0825 31.1903 38.1432 31.3647 36.9788C31.5503 35.7413 32.9847 34.8863 34.0984 34.6782C35.3978 34.4307 38.4972 34.56 41.1015 37.0407C41.7203 37.6257 41.4953 38.5369 41.4784 39.3525C41.4334 41.1019 43.9365 42.8007 45.9615 41.3382C47.9922 39.87 46.434 36.6019 45.1234 35.0157C44.1334 33.8175 40.5447 31.1794 36.084 30.7632C34.8297 30.645 29.784 29.8969 26.8703 35.4375C26.0322 37.0294 25.7228 40.8769 30.1103 44.1282C31.0272 44.8088 35.7859 47.2275 37.1078 48.7969C39.3972 51.5138 37.8278 53.9044 36.039 54.2194C31.1622 55.0744 28.4003 52.4363 27.8884 50.9907C27.5228 49.9613 27.9053 48.8475 27.4328 47.88C26.949 46.8844 25.959 46.4907 24.9128 46.8225C21.4815 47.9138 22.5728 51.6657 24.0915 53.73C25.7172 55.9407 27.714 57.2738 29.9584 58.005C38.334 60.7332 42.3615 56.4244 43.0646 53.2688C43.5821 50.9569 43.5259 48.9544 42.0522 47.0982Z" fill="#1E252B"/>
<path d="M40.027 27.5569C32.9001 42.7781 31.6738 61.9988 31.6738 61.9988" stroke="#1E252B" stroke-width="0.625" stroke-miterlimit="10"/>
<path d="M45.9385 17.9776C50.686 19.5244 51.7378 23.8163 51.3947 24.9863C50.9841 26.3588 45.7247 21.0151 37.906 21.3357C35.1722 21.4482 35.9653 19.7719 37.231 18.8044C38.9016 17.5276 41.7085 16.6051 45.9385 17.9776Z" fill="#6D4C41"/>
<path d="M45.9385 17.9776C50.686 19.5244 51.7378 23.8163 51.3947 24.9863C50.9841 26.3588 45.7247 21.0151 37.906 21.3357C35.1722 21.4482 35.9653 19.7719 37.231 18.8044C38.9016 17.5276 41.7085 16.6051 45.9385 17.9776Z" fill="#1E252B"/>
<path d="M54.2759 33.1088C54.8722 32.6982 56.8747 33.4069 57.4372 37.3275C57.7128 39.2457 57.7972 41.1019 57.7972 41.1019C57.7972 41.1019 55.4347 38.9813 54.6528 37.4907C53.6685 35.6063 53.2859 33.7838 54.2759 33.1088Z" fill="#0C9769"/>
</svg>
