<svg width="60" height="61" viewBox="0 0 60 61" fill="none" xmlns="http://www.w3.org/2000/svg">
<path d="M31.875 7.81238C31.875 7.3151 31.6775 6.83818 31.3258 6.48655C30.9742 6.13492 30.4973 5.93738 30 5.93738C29.5027 5.93738 29.0258 6.13492 28.6742 6.48655C28.3225 6.83818 28.125 7.3151 28.125 7.81238V10.9474H23.125C21.9647 10.9474 20.8519 11.4083 20.0314 12.2288C19.2109 13.0493 18.75 14.1621 18.75 15.3224V20.7099C22.55 20.3649 26.25 23.2999 26.25 27.5674V54.0724C26.25 54.139 26.2483 54.204 26.245 54.2674V55.9474H33.745V52.8224H33.75V34.0724C33.75 32.249 34.4743 30.5003 35.7636 29.211C37.053 27.9217 38.8016 27.1974 40.625 27.1974H41.25V15.3224C41.25 14.1621 40.7891 13.0493 39.9686 12.2288C39.1481 11.4083 38.0353 10.9474 36.875 10.9474H31.875V7.81238ZM36.245 55.9474H46.875C48.0353 55.9474 49.1481 55.4864 49.9686 54.666C50.7891 53.8455 51.25 52.7327 51.25 51.5724V34.0724C51.25 32.9121 50.7891 31.7993 49.9686 30.9788C49.1481 30.1583 48.0353 29.6974 46.875 29.6974H40.625C39.4647 29.6974 38.3519 30.1583 37.5314 30.9788C36.7109 31.7993 36.25 32.9121 36.25 34.0724V52.8224H36.245V55.9474ZM23.75 52.8224H23.745V55.9474H13.125C11.9647 55.9474 10.8519 55.4864 10.0314 54.666C9.21094 53.8455 8.75 52.7327 8.75 51.5724V31.6724C8.75 30.1974 9.4925 28.8224 10.725 28.0149L16.975 23.9124C19.8825 21.9999 23.75 24.0874 23.75 27.5674V52.8224Z" fill="#0ECC8D"/>
</svg>
