<svg width="88" height="75" viewBox="0 0 88 75" fill="none" xmlns="http://www.w3.org/2000/svg">
<path d="M44.3508 39.8341L42.4307 38.0003C41.1472 36.7745 41.1764 34.7838 42.4959 33.558L54.6033 22.3002C55.9227 21.0744 58.0363 21.0744 59.3198 22.3002L61.2397 24.1438C62.5232 25.3696 62.494 27.3603 61.1746 28.5861L49.0673 39.8341C47.7479 41.0599 45.6343 41.0599 44.3508 39.8341ZM55.345 45.5513L52.1209 42.4721L63.9432 31.4888L76.203 43.1977L64.3808 54.1809L61.1567 51.1017L36.6677 73.8526C35.021 75.3824 32.3869 75.3824 30.7747 73.8526C29.1625 72.3228 29.2093 69.8418 30.8561 68.3022L55.345 45.5513ZM67.0738 61.526C65.7903 60.3001 65.8195 58.3094 67.139 57.0836L79.2462 45.8357C80.5657 44.6099 82.6792 44.6099 83.9627 45.8357L85.8828 47.6695C87.1663 48.8953 87.1371 50.886 85.8177 52.1118L73.7103 63.3696C72.3908 64.5954 70.2772 64.5954 68.9937 63.3696L67.0736 61.5358L67.0738 61.526Z" fill="#EEA956"/>
<path d="M0.753906 0V66.6096H52.5614V0H0.753906ZM34.0587 48.1069H11.8555V44.4064H34.0587V48.1069ZM41.4598 37.0053H11.8555V33.3048H41.4598V37.0053ZM41.4598 25.9037H11.8555V22.2032H41.4598V25.9037ZM41.4598 14.8021H11.8555V11.1016H41.4598V14.8021Z" fill="#EEA956"/>
</svg>
