<svg width="43" height="42" viewBox="0 0 43 42" fill="none" xmlns="http://www.w3.org/2000/svg">
<g clip-path="url(#clip0_55_1740)">
<path d="M22.876 11.8333V15.5C22.876 15.9862 23.0691 16.4525 23.4129 16.7964C23.7568 17.1402 24.2231 17.3333 24.7093 17.3333H28.376" stroke="white" stroke-width="2" stroke-linecap="round" stroke-linejoin="round"/>
<path d="M24.709 30.1667H26.5423C27.0285 30.1667 27.4949 29.9735 27.8387 29.6297C28.1825 29.2859 28.3757 28.8196 28.3757 28.3333V16.4167L23.7923 11.8333H15.5423C15.0561 11.8333 14.5898 12.0265 14.246 12.3703C13.9021 12.7141 13.709 13.1804 13.709 13.6667V16.875" stroke="white" stroke-width="2" stroke-linecap="round" stroke-linejoin="round"/>
<path d="M13.7248 20.5527C13.1641 21.0502 12.7111 21.6571 12.3935 22.3361C12.0759 23.0151 11.9005 23.7519 11.878 24.5011C11.8555 25.2504 11.9863 25.9963 12.2626 26.6932C12.5388 27.39 12.9546 28.0231 13.4843 28.5534C14.0141 29.0837 14.6467 29.5002 15.3432 29.7771C16.0398 30.0541 16.7856 30.1858 17.5349 30.1641C18.2842 30.1423 19.0211 29.9677 19.7004 29.6508C20.3798 29.3339 20.9872 28.8815 21.4853 28.3214" stroke="white" stroke-width="2" stroke-linecap="round" stroke-linejoin="round"/>
<path d="M18.2926 24.6667C18.0495 24.6667 17.8164 24.5701 17.6445 24.3982C17.4726 24.2263 17.376 23.9931 17.376 23.75V20.0833C17.376 19.5773 17.7885 19.1593 18.2881 19.2427C19.4158 19.4324 20.4565 19.9689 21.2651 20.7775C22.0738 21.5862 22.6103 22.6268 22.7999 23.7546C22.8833 24.2532 22.4653 24.6667 21.9593 24.6667H18.2926Z" stroke="white" stroke-width="2" stroke-linecap="round" stroke-linejoin="round"/>
</g>
<defs>
<clipPath id="clip0_55_1740">
<rect width="22" height="22" fill="white" transform="translate(10.0425 10)"/>
</clipPath>
</defs>
</svg>
