<svg width="48" height="49" viewBox="0 0 48 49" fill="none" xmlns="http://www.w3.org/2000/svg">
<path d="M28 4.5V12.5C28 13.5609 28.4214 14.5783 29.1716 15.3284C29.9217 16.0786 30.9391 16.5 32 16.5H40" stroke="#B7A800" stroke-width="5" stroke-linecap="round" stroke-linejoin="round"/>
<path d="M32 44.5H36C37.0609 44.5 38.0783 44.0786 38.8284 43.3284C39.5786 42.5783 40 41.5609 40 40.5V14.5L30 4.5H12C10.9391 4.5 9.92172 4.92143 9.17157 5.67157C8.42143 6.42172 8 7.43913 8 8.5V15.5" stroke="#B7A800" stroke-width="5" stroke-linecap="round" stroke-linejoin="round"/>
<path d="M8.0339 23.524C6.81064 24.6096 5.8222 25.9337 5.12928 27.4152C4.43636 28.8966 4.05357 30.5041 4.00444 32.1388C3.95531 33.7736 4.24086 35.4011 4.84356 36.9215C5.44626 38.4419 6.35339 39.823 7.50924 40.9801C8.66509 42.1372 10.0453 43.0458 11.565 43.6501C13.0848 44.2544 14.712 44.5417 16.3468 44.4943C17.9816 44.4469 19.5894 44.0658 21.0716 43.3745C22.5538 42.6831 23.879 41.6961 24.9659 40.474" stroke="#B7A800" stroke-width="5" stroke-linecap="round" stroke-linejoin="round"/>
<path d="M18 32.5C17.4696 32.5 16.9609 32.2893 16.5858 31.9142C16.2107 31.5391 16 31.0304 16 30.5V22.5C16 21.396 16.9 20.484 17.99 20.666C20.4506 21.0798 22.7211 22.2502 24.4854 24.0146C26.2498 25.7789 27.4202 28.0494 27.834 30.51C28.016 31.598 27.104 32.5 26 32.5H18Z" stroke="#B7A800" stroke-width="5" stroke-linecap="round" stroke-linejoin="round"/>
</svg>
